<svg width="101" height="36" viewBox="0 0 101 36" fill="none" xmlns="http://www.w3.org/2000/svg">
<path d="M21.17 15.28L19.26 8.75H12.09L10.21 15.28L8.3 8.75H0L6.46 28.44H13.95L15.68 21.72L17.39 28.44H24.88L31.34 8.75H23.04L21.17 15.28ZM29.77 9.89L24.06 27.29H18.29L15.7 17.1L13.08 27.29H7.31L1.6 9.89H7.46L10.23 19.38L12.96 9.89H18.41L21.18 19.38L23.91 9.89H29.77Z" fill="white"/>
<path d="M35.85 8.2C38.11 8.2 39.95 6.36 39.95 4.1C39.95 1.84 38.11 0 35.85 0C33.59 0 31.75 1.84 31.75 4.1C31.75 6.36 33.59 8.2 35.85 8.2ZM35.85 1.15C37.48 1.15 38.8 2.47 38.8 4.1C38.8 5.73 37.48 7.05 35.85 7.05C34.22 7.05 32.9 5.73 32.9 4.1C32.9 2.47 34.22 1.15 35.85 1.15Z" fill="white"/>
<path d="M54.41 8.75L51.91 15.78L49.19 8.75H39.92H39.57H31.77V28.34H39.93V9.44L48.15 25.52L43.87 35.87H52.86L63.79 8.75H54.41ZM38.77 27.2H32.9V9.89H38.77V27.2ZM52.09 34.73H45.58L49.39 25.48L41.43 9.9H48.4L51.95 19.07L55.21 9.9H62.09L52.09 34.73Z" fill="white"/>
<path d="M100.32 17.6402C100.32 14.8302 99.3499 12.5501 97.4299 10.8801C95.5699 9.27015 93.2099 8.41016 90.5999 8.41016C87.9899 8.41016 85.6499 9.33015 83.6599 11.1502C81.6899 12.9502 80.6899 15.4202 80.6899 18.4902C80.6899 21.5702 81.6799 24.0502 83.6199 25.8502C85.4899 27.6502 88.0099 28.6002 90.8999 28.6002C93.7899 28.6002 96.3699 27.5602 98.5799 25.4802L99.4599 24.6002L96.5699 21.4902H100.32V17.6402ZM99.1799 20.3402H86.5999L87.0999 21.2001C87.3799 21.6901 87.7399 22.0702 88.1799 22.3602C88.9799 22.9402 89.8699 23.2202 90.9099 23.2202C92.5599 23.2202 93.8799 22.6902 94.9199 21.6102L95.0299 21.5002L97.8799 24.5702L97.7899 24.6602C95.8099 26.5202 93.4899 27.4602 90.8999 27.4602C88.3099 27.4602 86.0599 26.6202 84.3999 25.0202C82.6699 23.4102 81.8299 21.2702 81.8299 18.4902C81.8299 15.7502 82.6999 13.5702 84.4299 11.9902C86.2099 10.3702 88.2799 9.55016 90.5999 9.55016C92.9599 9.55016 95.0099 10.2902 96.6799 11.7402C98.3599 13.2002 99.1699 15.1302 99.1699 17.6402V20.3402H99.1799Z" fill="white"/>
<path d="M93.0101 14.5193C92.3601 14.0293 91.5801 13.7793 90.7001 13.7793C89.8101 13.7793 88.9701 14.0593 88.2201 14.5993C87.7401 14.9193 87.3701 15.3693 87.1601 15.8693L86.8301 16.6593H94.2101L93.9401 15.8993C93.7501 15.3893 93.4801 14.9793 93.0101 14.5193Z" fill="white"/>
<path d="M78.6901 9.93936C77.7001 9.11936 76.5501 8.47936 75.2601 8.03936C71.4201 6.85936 68.2801 7.33936 65.9201 9.10936C65.1701 9.63936 64.5601 10.3594 63.9601 11.4394C63.5601 12.3794 63.3701 13.3494 63.3701 14.4194C63.3701 15.5194 63.5401 16.4594 63.9001 17.2694C64.2801 18.1594 64.8801 18.9594 65.6601 19.5894C65.7001 19.6194 65.7501 19.6494 65.8001 19.6894L61.8701 24.4094L63.4301 25.7994C65.7901 27.9594 68.6201 29.0594 71.8201 29.0594C74.1601 29.0594 76.0701 28.4294 77.4901 27.2094C78.2601 26.6094 78.9001 25.8194 79.3601 24.9194C79.7601 24.0494 79.9601 23.0894 79.9601 21.9894C79.9601 19.8694 79.2801 18.2094 77.9301 17.0394C77.5701 16.7394 77.1801 16.4594 76.7401 16.1994L80.2201 11.2594L78.6901 9.93936ZM75.9801 15.2694L75.1101 14.5194C74.7601 14.1694 74.2301 13.8694 73.4501 13.5794C72.7401 13.3394 72.0301 13.2294 71.2801 13.2294H71.0701C70.6201 13.2194 70.1501 13.2194 69.7701 13.5494C69.5901 13.7094 69.4901 13.9294 69.4901 14.2194C69.4901 14.4494 69.5901 14.7594 69.8601 14.9294C70.4701 15.2994 71.8401 15.6794 72.8801 15.9294C74.7701 16.3894 76.1801 17.0294 77.1901 17.8894C78.2701 18.8294 78.8201 20.1994 78.8201 21.9694C78.8201 22.8994 78.6601 23.6994 78.3401 24.3994C77.9701 25.1294 77.4401 25.7894 76.7801 26.2994C75.5501 27.3594 73.8901 27.8894 71.8401 27.8894C68.9301 27.8894 66.3601 26.8994 64.2101 24.9294L63.4701 24.2694L66.5501 20.5694L67.3301 21.2694C68.0901 21.9294 68.8901 22.4394 69.6301 22.7394C70.3801 23.0494 71.1401 23.1994 71.9301 23.1994C72.6401 23.1994 73.1001 23.0894 73.4201 22.8394C73.6201 22.7194 73.8501 22.5094 73.8501 22.1194C73.8501 21.8494 73.7801 21.6694 73.5901 21.4894L73.4801 21.3994C73.2801 21.2794 72.7601 20.9694 71.2601 20.5994C70.1001 20.3394 69.0901 20.0594 68.3701 19.7894C67.7101 19.5294 67.1001 19.1794 66.3701 18.6594C65.7601 18.1694 65.2701 17.5194 64.9601 16.7894C64.6701 16.1194 64.5301 15.3394 64.5301 14.3894C64.5301 13.4794 64.6901 12.6494 65.0001 11.9094C65.4801 11.0394 65.9901 10.4394 66.6001 10.0094C68.6801 8.44936 71.4801 8.04936 74.9101 9.09936C76.0501 9.48936 77.0801 10.0594 77.9601 10.7894L78.6901 11.4094L75.9801 15.2694Z" fill="white"/>
</svg>
